<svg xmlns="http://www.w3.org/2000/svg" width="149" height="38" viewBox="0 0 149 38" fill="none">
    <path d="M138.009 23.8652C137.585 27.4151 135.984 30.2626 133.674 30.2626C131.358 30.2626 130.504 27.4151 130.934 23.8652C131.358 20.2963 132.921 17.4172 135.218 17.4172C137.54 17.4109 138.433 20.2963 138.009 23.8652ZM148.823 33.4834C149.43 32.1989 146.032 33.8188 146.924 26.2761C147.355 23.0109 149 12.1904 149 12.1904C149 12.0069 148.861 11.9563 148.861 11.9563H139.426C139.426 11.9563 139.141 12.0069 139.141 12.2347C139.141 12.2347 138.958 13.5256 138.717 15.5125C137.578 12.8549 135.503 11.0071 132.257 11.0071C126.068 11.0071 122.018 16.7907 121.221 23.2894C120.411 29.6425 122.917 36.7992 128.852 36.7992C132.162 36.7992 134.99 34.5275 136.977 31.4459C137.161 34.8059 139.47 36.8562 142.735 36.8562C145.381 36.8562 148.158 35.0021 148.823 33.4834ZM106.477 13.2788C106.958 11.6146 108.325 6.97001 110.35 6.97001C111.533 6.97001 111.577 7.64075 111.533 8.25455C111.154 11.1527 106.477 13.2788 106.477 13.2788ZM107.186 21.7644C109.54 22.1947 110.306 23.8589 110.16 26.4153C110.116 27.7884 108.945 31.68 106.477 31.68C103.035 31.68 104.073 24.1436 104.452 22.0555C104.452 22.0555 105.965 21.5809 107.186 21.7644ZM118.703 24.1436C118.19 17.4109 110.584 15.9871 105.199 17.8411L105.44 16.8857C124.695 14.7532 121.575 0.471366 112.046 0.762444C101.01 1.04719 94.9227 14.7532 94.9227 25.0865C94.9227 31.6357 98.7827 37.0397 105.927 37.0397C113.223 37.0397 119.266 31.8256 118.703 24.1436ZM89.8985 35.9576C89.8985 35.9576 92.6384 13.6648 92.7713 12.5764C92.7713 12.4309 92.6827 12.3803 92.6321 12.3803H92.6764C85.3235 10.8616 78.6666 10.9565 72.149 12.3803C72.0984 12.3803 71.9592 12.4309 71.9592 12.6207C71.9592 12.6207 71.0543 20.2584 69.6432 23.9538C66.9539 30.7815 64.0241 31.1168 63.9292 32.0154C63.7963 33.0152 64.967 37.2421 69.3585 37.2421C73.1804 37.2421 75.8255 34.7743 77.2365 29.0856C78.192 25.3396 78.7552 21.1632 78.9451 16.7528H82.7607C81.9128 23.7703 80.4005 35.9639 80.4005 35.9639C80.4005 36.1981 80.5903 36.1981 80.5903 36.1981H89.7023C89.715 36.1854 89.8985 36.1854 89.8985 35.9576ZM51.4761 23.8652C51.0522 27.4151 49.4449 30.2626 47.1353 30.2626C44.8193 30.2626 43.9777 27.4151 44.4017 23.8652C44.8193 20.2963 46.3823 17.4172 48.6982 17.4172C51.0079 17.4109 51.8938 20.2963 51.4761 23.8652ZM62.2777 33.4834C62.8915 32.1989 59.4871 33.8188 60.392 26.2761C60.8096 23.0109 62.4675 12.1904 62.4675 12.1904C62.4675 12.0069 62.3346 11.9563 62.3346 11.9563H52.8872C52.8872 11.9563 52.6088 12.0069 52.6088 12.2347C52.6088 12.2347 52.4126 13.5256 52.1785 15.5125C51.0458 12.8549 48.9767 11.0071 45.7178 11.0071C39.5356 11.0071 35.4858 16.7907 34.6758 23.2894C33.8722 29.6425 36.3717 36.7992 42.3261 36.7992C45.6229 36.7992 48.4578 34.5275 50.432 31.4459C50.6219 34.8059 52.9442 36.8562 56.1903 36.8562C58.8417 36.8562 61.6132 35.0021 62.2777 33.4834ZM32.4864 36.1854H19.7486C19.5081 36.1854 19.4638 35.9513 19.4638 35.9513L14.37 23.4286C9.83928 26.6494 12.3388 31.7749 13.2373 32.7178C13.617 33.3379 11.2061 37.2232 6.85889 37.2232C2.76481 37.2232 -0.215574 33.8504 0.0122268 29.6741C0.296977 24.7954 5.54271 19.8154 12.2375 17.8728L4.59355 2.55954C4.59355 2.55954 4.50496 2.22417 4.8783 2.22417H16.8188C17.0593 2.22417 17.1542 2.50892 17.1542 2.50892L22.0709 15.0759C26.9306 12.2221 24.1401 5.68546 23.1529 4.73629C22.8176 4.40725 24.1401 1.46483 28.4873 1.08516C33.2015 0.648545 36.1755 3.93267 36.0869 8.1533C35.9984 13.1269 31.2209 18.1639 24.3869 20.1951L32.6446 35.9449C32.632 35.9576 32.7712 36.1854 32.4864 36.1854Z" fill="#F26924"/>
</svg>
